HIERARCHY
ROOT Hips
{
	OFFSET -0.001795 -0.223333 0.028219
	CHANNELS 6 Xposition Yposition Zposition Zrotation Yrotation Xrotation 
	JOINT LeftUpLeg
	{
		OFFSET 0.069520 -0.091406 -0.006815
		CHANNELS 3 Zrotation Yrotation Xrotation
		JOINT LeftLeg
		{
			OFFSET 0.034277 -0.375199 -0.004496
			CHANNELS 3 Zrotation Yrotation Xrotation
			JOINT LeftFoot
			{
				OFFSET -0.013596 -0.397961 -0.043693
				CHANNELS 3 Zrotation Yrotation Xrotation
				JOINT LeftToe
				{
					OFFSET 0.026358 -0.055791 0.119288
					CHANNELS 3 Zrotation Yrotation Xrotation
					End Site
					{
						OFFSET 0.000000 0.000000 0.000000
					}
				}
			}
		}
	}
	JOINT RightUpLeg
	{
		OFFSET -0.067670 -0.090522 -0.004320
		CHANNELS 3 Zrotation Yrotation Xrotation
		JOINT RightLeg
		{
			OFFSET -0.038290 -0.382569 -0.008850
			CHANNELS 3 Zrotation Yrotation Xrotation
			JOINT RightFoot
			{
				OFFSET 0.015774 -0.398415 -0.042312
				CHANNELS 3 Zrotation Yrotation Xrotation
				JOINT RightToe
				{
					OFFSET -0.025372 -0.048144 0.123348
					CHANNELS 3 Zrotation Yrotation Xrotation
					End Site
					{
						OFFSET 0.000000 0.000000 0.000000
					}
				}
			}
		}
	}
	JOINT Spine
	{
		OFFSET -0.002533 0.108963 -0.026696
		CHANNELS 3 Zrotation Yrotation Xrotation
		JOINT Spine1
		{
			OFFSET 0.005487 0.135180 0.001092
			CHANNELS 3 Zrotation Yrotation Xrotation
			JOINT Spine2
			{
				OFFSET 0.001457 0.052922 0.025425
				CHANNELS 3 Zrotation Yrotation Xrotation
				JOINT Neck
				{
					OFFSET -0.002778 0.213870 -0.042857
					CHANNELS 3 Zrotation Yrotation Xrotation
					JOINT Head
					{
						OFFSET 0.005152 0.064970 0.051349
						CHANNELS 3 Zrotation Yrotation Xrotation
						End Site
						{
							OFFSET 0.000000 0.000000 0.000000
						}
					}
				}
				JOINT LeftShoulder
				{
					OFFSET 0.078845 0.121749 -0.034090
					CHANNELS 3 Zrotation Yrotation Xrotation
					JOINT LeftArm
					{
						OFFSET 0.090977 0.030469 -0.008868
						CHANNELS 3 Zrotation Yrotation Xrotation
						JOINT LeftForeArm
						{
							OFFSET 0.259612 -0.012772 -0.027456
							CHANNELS 3 Zrotation Yrotation Xrotation
							JOINT LeftHand
							{
								OFFSET 0.249234 0.008986 -0.001171
								CHANNELS 3 Zrotation Yrotation Xrotation
								End Site
								{
									OFFSET 0.000000 0.000000 0.000000
								}
							}
						}
					}
				}
				JOINT RightShoulder
				{
					OFFSET -0.081759 0.118833 -0.038615
					CHANNELS 3 Zrotation Yrotation Xrotation
					JOINT RightArm
					{
						OFFSET -0.096012 0.032551 -0.009143
						CHANNELS 3 Zrotation Yrotation Xrotation
						JOINT RightForeArm
						{
							OFFSET -0.253742 -0.013329 -0.021401
							CHANNELS 3 Zrotation Yrotation Xrotation
							JOINT RightHand
							{
								OFFSET -0.255298 0.007772 -0.005559
								CHANNELS 3 Zrotation Yrotation Xrotation
								End Site
								{
									OFFSET 0.000000 0.000000 0.000000
								}
							}
						}
					}
				}
			}
		}
	}
}
MOTION
Frames: 15
Frame Time: 0.050000
0.000000 0.946561 0.000000 0.258777 -1.245887 6.256398 5.253446 -0.380424 -5.494959 -0.681320 0.176986 -3.647057 4.645555 12.275082 13.967046 0.000000 0.000000 0.000000 -3.574440 0.645749 -7.232495 -2.459471 0.047164 -3.299712 -0.281672 -4.994910 9.968840 0.000000 0.000000 0.000000 4.657158 -0.024573 -1.389201 -2.792479 1.277545 -6.547916 -4.646148 4.186744 5.577967 5.329386 -2.040358 -13.347208 0.000000 0.000000 0.000000 -14.788985 -2.500329 -1.001425 -51.476421 -7.313758 -2.983146 -2.898550 -10.860314 0.618942 0.000000 0.000000 0.000000 12.848515 -5.734032 -3.234134 60.042577 4.046385 -3.617956 1.544485 16.755484 0.870142 0.000000 0.000000 0.000000 
-0.000200 0.946186 0.000028 0.167716 -1.946682 6.954891 5.216699 -0.357393 -4.923227 -0.488503 0.228497 -5.771460 4.911391 12.686704 14.618677 0.000000 0.000000 0.000000 -3.748537 0.722643 -8.231933 -2.030425 0.024024 -3.105375 -0.023145 -4.536408 9.896034 0.000000 0.000000 0.000000 5.945447 -0.050428 -1.467780 -3.524585 1.546763 -7.352818 -6.142576 5.481999 4.920969 5.665740 -1.803975 -15.447992 0.000000 0.000000 0.000000 -15.027330 -2.538743 -1.277217 -51.889775 -7.620960 -2.773615 -1.813869 -9.032280 0.419600 0.000000 0.000000 0.000000 13.231994 -7.217193 -3.839962 61.356491 2.800499 -4.155984 1.975298 16.425527 0.930556 0.000000 0.000000 0.000000 
-0.000286 0.945546 -0.000060 0.531427 -1.540266 6.924294 4.783214 -0.388065 -5.311226 -0.367738 0.201936 -5.194057 4.745206 12.438855 14.301260 0.000000 0.000000 0.000000 -4.193570 0.705325 -8.219580 -1.921312 0.026216 -2.951559 -0.283681 -4.900268 9.599614 0.000000 0.000000 0.000000 5.743389 -0.067428 -1.251886 -3.233032 1.427266 -8.497714 -6.601143 5.310355 5.411459 5.824159 -1.955236 -15.073449 0.000000 0.000000 0.000000 -15.166288 -2.961946 -1.105022 -52.108114 -6.621502 -3.255140 -1.631446 -7.886372 0.356952 0.000000 0.000000 0.000000 13.946878 -6.552902 -3.545337 61.416333 1.935663 -4.696019 2.159514 16.227353 0.944268 0.000000 0.000000 0.000000 
-0.000346 0.944943 -0.000041 0.666778 -1.094626 7.352109 5.189988 -0.413383 -5.847220 -1.269745 0.259261 -5.228136 4.549656 12.169247 14.157792 0.000000 0.000000 0.000000 -4.404120 0.746941 -8.970705 -1.803399 0.055186 -2.285737 -0.593808 -5.361001 9.285174 0.000000 0.000000 0.000000 5.765364 -0.044818 -1.611591 -3.330624 1.479195 -7.723982 -6.810984 4.442459 4.078781 5.631436 -1.980734 -14.290274 0.000000 0.000000 0.000000 -15.386942 -2.016705 -1.528462 -52.651363 -6.491390 -3.225250 -0.546177 -7.283486 0.264277 0.000000 0.000000 0.000000 12.810338 -6.818492 -3.671696 62.149987 1.513327 -4.770750 3.490181 15.859677 1.051937 0.000000 0.000000 0.000000 
-0.000430 0.944855 0.000043 0.873092 -0.814429 7.160278 4.738221 -0.424643 -5.843844 -0.838885 0.223618 -4.946917 4.407391 11.965811 14.028118 0.000000 0.000000 0.000000 -4.618456 0.727838 -8.869994 -1.789338 0.072076 -1.980645 -0.757311 -5.597907 9.100730 0.000000 0.000000 0.000000 5.452992 -0.042653 -1.540229 -3.034120 1.370815 -7.547499 -6.843885 4.338448 4.023347 5.181060 -1.737086 -13.985353 0.000000 0.000000 0.000000 -15.708945 -1.819132 -1.689040 -52.843417 -6.545443 -3.204109 -0.936499 -7.078899 0.279865 0.000000 0.000000 0.000000 12.348793 -6.804756 -3.608128 62.778616 1.183120 -4.952411 3.846934 16.307664 1.132807 0.000000 0.000000 0.000000 
-0.000476 0.945032 0.000201 1.002667 -0.817003 7.099363 4.643293 -0.424600 -5.809594 -0.922581 0.227264 -4.878163 4.388102 11.944445 14.078375 0.000000 0.000000 0.000000 -4.779786 0.732403 -9.054951 -1.749704 0.094683 -1.509251 -0.793077 -5.626243 8.967162 0.000000 0.000000 0.000000 5.385611 -0.040772 -1.537413 -3.054915 1.378434 -7.631497 -6.724259 4.255423 4.044539 5.408727 -1.939013 -13.673065 0.000000 0.000000 0.000000 -16.090923 -1.418357 -1.920890 -52.942274 -6.323334 -3.303482 -1.012831 -7.722831 0.309535 0.000000 0.000000 0.000000 12.060038 -6.804181 -3.593292 63.382124 1.259019 -4.945864 4.531701 16.348814 1.217659 0.000000 0.000000 0.000000 
-0.000547 0.945069 0.000321 1.010778 -0.854499 6.957807 4.502788 -0.428960 -5.868090 -0.689997 0.200490 -4.472838 4.428711 11.988289 13.977795 0.000000 0.000000 0.000000 -4.742201 0.721344 -8.867331 -1.819439 0.097654 -1.566538 -0.767205 -5.575161 8.957397 0.000000 0.000000 0.000000 5.447416 -0.051992 -1.392121 -3.035732 1.370727 -7.675455 -6.585487 4.120994 4.167710 5.329870 -1.895744 -13.758677 0.000000 0.000000 0.000000 -16.113741 -0.761187 -2.201411 -53.086906 -5.959284 -3.496992 -1.496707 -9.000354 0.396579 0.000000 0.000000 0.000000 11.713792 -6.932829 -3.641253 63.690296 0.949973 -5.146598 5.322697 17.517610 1.426590 0.000000 0.000000 0.000000 
-0.000604 0.945133 0.000408 1.032204 -0.949298 7.071430 4.318328 -0.440613 -5.994783 -0.407725 0.179719 -4.430897 4.480190 12.065660 14.032054 0.000000 0.000000 0.000000 -4.658130 0.749592 -9.247642 -2.019879 0.140013 -1.127301 -0.761339 -5.541240 8.857728 0.000000 0.000000 0.000000 5.317805 -0.032828 -1.604295 -2.886978 1.311484 -7.506916 -6.300508 3.962735 4.114308 5.521027 -2.102152 -13.357291 0.000000 0.000000 0.000000 -16.040493 -0.099860 -2.457926 -53.254217 -5.534227 -3.705646 -2.366330 -10.458482 0.537420 0.000000 0.000000 0.000000 11.518176 -7.137483 -3.751451 63.900850 0.869577 -5.211480 5.630697 18.093657 1.519365 0.000000 0.000000 0.000000 
-0.000682 0.945379 0.000467 1.064958 -1.179935 6.916958 4.304845 -0.443087 -6.102300 -0.469414 0.167145 -3.868213 4.612325 12.239490 14.002686 0.000000 0.000000 0.000000 -4.650872 0.747018 -9.183627 -2.096953 0.152847 -1.013648 -0.654747 -5.344308 8.841836 0.000000 0.000000 0.000000 5.335392 -0.051068 -1.362711 -2.810307 1.276299 -7.896061 -6.079500 4.074096 4.427918 5.751124 -2.304034 -13.098363 0.000000 0.000000 0.000000 -15.770150 0.432034 -2.645325 -53.452814 -5.321943 -3.865669 -3.248882 -12.061474 0.709136 0.000000 0.000000 0.000000 11.336289 -7.545360 -3.928819 63.797238 0.813225 -5.266737 6.166397 18.820048 1.673261 0.000000 0.000000 0.000000 
-0.000756 0.945855 0.000573 0.991536 -1.574375 6.968583 4.315521 -0.444443 -6.186925 -0.384158 0.155228 -3.684123 4.808582 12.517196 14.163478 0.000000 0.000000 0.000000 -4.597475 0.760269 -9.283653 -2.066946 0.145585 -1.066408 -0.450247 -5.024499 8.991266 0.000000 0.000000 0.000000 5.288827 -0.030692 -1.579434 -2.676415 1.217043 -7.784484 -5.731378 4.141734 4.577374 6.063565 -2.528443 -13.098340 0.000000 0.000000 0.000000 -15.820221 0.951311 -2.855629 -53.592156 -5.077778 -4.008896 -3.968484 -13.143748 0.855719 0.000000 0.000000 0.000000 11.385769 -7.676547 -4.020757 63.664825 1.066408 -5.161134 6.073106 18.936073 1.667676 0.000000 0.000000 0.000000 
-0.000824 0.946159 0.000808 0.986889 -1.817484 7.057615 4.403659 -0.445074 -6.273716 -0.551095 0.166072 -3.605688 4.924008 12.682069 14.288352 0.000000 0.000000 0.000000 -4.623709 0.777080 -9.509278 -2.023991 0.150456 -0.895417 -0.345620 -4.848773 9.018491 0.000000 0.000000 0.000000 5.425359 -0.016428 -1.775438 -2.664764 1.208182 -7.811960 -5.661383 4.015067 4.787238 6.289933 -2.732216 -12.939386 0.000000 0.000000 0.000000 -15.902806 1.088507 -2.870394 -53.461219 -5.142967 -3.993971 -4.294951 -13.600626 0.930563 0.000000 0.000000 0.000000 11.291928 -7.744726 -4.074692 63.793489 1.374344 -5.047922 5.797106 18.982686 1.623265 0.000000 0.000000 0.000000 
-0.000903 0.946165 0.001238 0.937105 -2.089251 7.024255 4.444174 -0.440671 -6.262478 -0.552675 0.161039 -3.424024 5.076970 12.885513 14.284905 0.000000 0.000000 0.000000 -4.540897 0.784645 -9.530346 -2.082322 0.158346 -0.834516 -0.229547 -4.627867 8.975827 0.000000 0.000000 0.000000 5.382550 -0.015039 -1.771391 -2.476053 1.130850 -7.527095 -5.347232 3.974956 4.517085 6.750141 -3.118640 -12.503816 0.000000 0.000000 0.000000 -16.067962 1.465747 -3.041295 -53.557574 -5.363979 -3.881894 -4.611594 -13.568013 0.968223 0.000000 0.000000 0.000000 11.251454 -8.150708 -4.291927 63.623111 1.417885 -5.002580 5.872903 18.884048 1.614977 0.000000 0.000000 0.000000 
-0.001049 0.946150 0.001763 0.791500 -2.459655 6.920980 4.410852 -0.425196 -6.023042 -0.247988 0.137469 -3.453846 5.275152 13.149975 14.312654 0.000000 0.000000 0.000000 -4.197739 0.791566 -9.394085 -2.411280 0.181148 -0.933913 -0.048156 -4.300604 8.970734 0.000000 0.000000 0.000000 5.361837 -0.023996 -1.632659 -2.246704 1.034431 -7.468044 -5.022775 3.762449 4.397815 7.067433 -3.422740 -12.150212 0.000000 0.000000 0.000000 -16.352871 1.798556 -3.160852 -53.546747 -5.517999 -3.803362 -4.833298 -13.351314 0.986531 0.000000 0.000000 0.000000 11.429570 -8.397465 -4.488371 63.256418 1.660372 -4.884030 5.980882 18.891776 1.616380 0.000000 0.000000 0.000000 
-0.001168 0.945823 0.002277 0.754232 -2.764135 6.978639 4.496404 -0.421469 -6.037295 -0.351015 0.143637 -3.380027 5.456472 13.387048 14.261582 0.000000 0.000000 0.000000 -3.886290 0.817784 -9.562235 -2.909081 0.234994 -0.781848 0.054584 -4.070139 8.822188 0.000000 0.000000 0.000000 5.414792 0.000385 -1.917054 -2.118363 0.978950 -6.992033 -4.702728 3.338924 4.178596 7.626369 -3.877669 -11.911900 0.000000 0.000000 0.000000 -16.416827 2.066761 -3.178976 -53.528662 -6.073846 -3.543804 -4.998508 -12.288761 0.935239 0.000000 0.000000 0.000000 11.188997 -8.675292 -4.660603 63.313281 1.548929 -4.974158 6.071204 19.199630 1.636430 0.000000 0.000000 0.000000 
-0.001224 0.945988 0.002689 0.720744 -3.019732 6.966637 4.380684 -0.412917 -5.844201 -0.115045 0.130476 -3.565733 5.570966 13.546284 14.389031 0.000000 0.000000 0.000000 -3.736376 0.821648 -9.507571 -3.121334 0.245691 -0.893418 0.186017 -3.852844 8.876034 0.000000 0.000000 0.000000 5.373288 -0.005808 -1.832201 -1.930588 0.900396 -7.015071 -4.558731 3.066922 4.162220 7.799179 -4.079788 -11.613852 0.000000 0.000000 0.000000 -16.365022 2.063869 -3.077834 -53.492711 -6.456106 -3.381929 -5.337287 -11.759837 0.935744 0.000000 0.000000 0.000000 11.352662 -9.301335 -5.027623 63.224626 1.456443 -5.057856 6.081550 19.655766 1.667818 0.000000 0.000000 0.000000 
